HIERARCHY
ROOT Hips
{
  OFFSET 2.80164 150.773 -8.90056
  CHANNELS 6 Xposition Yposition Zposition Zrotation Xrotation Yrotation
  JOINT Spine
  {
    OFFSET 0 10.1816 0.1315
    CHANNELS 6 Xposition Yposition Zposition Zrotation Xrotation Yrotation
    JOINT Spine1
    {
      OFFSET 0 10.0835 -1.0008
      CHANNELS 6 Xposition Yposition Zposition Zrotation Xrotation Yrotation
      JOINT Spine2
      {
        OFFSET 0 9.1 -1.3734
        CHANNELS 6 Xposition Yposition Zposition Zrotation Xrotation Yrotation
        JOINT Neck
        {
          OFFSET 0 16.6717 -2.5162
          CHANNELS 6 Xposition Yposition Zposition Zrotation Xrotation Yrotation
          JOINT Head
          {
            OFFSET 0 9.6179 1.685
            CHANNELS 6 Xposition Yposition Zposition Zrotation Xrotation Yrotation
            JOINT HeadTop_End
            {
              OFFSET 0 17.8152 2.585
              CHANNELS 6 Xposition Yposition Zposition Zrotation Xrotation Yrotation
              End Site
              {
                OFFSET 0 0 0
              }
            }
            JOINT LeftEye
            {
              OFFSET 3.0676 6.4095 9.2836
              CHANNELS 6 Xposition Yposition Zposition Zrotation Xrotation Yrotation
              End Site
              {
                OFFSET 0 0 0
              }
            }
            JOINT RightEye
            {
              OFFSET -3.0676 6.4095 9.2835
              CHANNELS 6 Xposition Yposition Zposition Zrotation Xrotation Yrotation
              End Site
              {
                OFFSET 0 0 0
              }
            }
          }
        }
        JOINT LeftShoulder
        {
          OFFSET 4.5704 10.946 -2.628
          CHANNELS 6 Xposition Yposition Zposition Zrotation Xrotation Yrotation
          JOINT LeftArm
          {
            OFFSET 10.5924 -0.5246 -2.2321
            CHANNELS 6 Xposition Yposition Zposition Zrotation Xrotation Yrotation
            JOINT LeftForeArm
            {
              OFFSET 27.8415 -0.0001 0
              CHANNELS 6 Xposition Yposition Zposition Zrotation Xrotation Yrotation
              JOINT LeftHand
              {
                OFFSET 28.3288 0 0
                CHANNELS 6 Xposition Yposition Zposition Zrotation Xrotation Yrotation
                JOINT LeftHandThumb1
                {
                  OFFSET 2.4661 -1.575 2.6824
                  CHANNELS 6 Xposition Yposition Zposition Zrotation Xrotation Yrotation
                  JOINT LeftHandThumb2
                  {
                    OFFSET 3.2298 -1.8647 1.8647
                    CHANNELS 6 Xposition Yposition Zposition Zrotation Xrotation Yrotation
                    JOINT LeftHandThumb3
                    {
                      OFFSET 2.6526 -1.5315 1.5315
                      CHANNELS 6 Xposition Yposition Zposition Zrotation Xrotation Yrotation
                      End Site
                      {
                        OFFSET 1.9546 -1.1285 1.1285
                      }
                    }
                  }
                }
                JOINT LeftHandIndex1
                {
                  OFFSET 9.1093 -0.5171 2.2601
                  CHANNELS 6 Xposition Yposition Zposition Zrotation Xrotation Yrotation
                  JOINT LeftHandIndex2
                  {
                    OFFSET 3.6764 0 0
                    CHANNELS 6 Xposition Yposition Zposition Zrotation Xrotation Yrotation
                    JOINT LeftHandIndex3
                    {
                      OFFSET 2.8831 0 0
                      CHANNELS 6 Xposition Yposition Zposition Zrotation Xrotation Yrotation
                      End Site
                      {
                        OFFSET 2.3927 0 0
                      }
                    }
                  }
                }
                JOINT LeftHandMiddle1
                {
                  OFFSET 9.5334 0 0
                  CHANNELS 6 Xposition Yposition Zposition Zrotation Xrotation Yrotation
                  JOINT LeftHandMiddle2
                  {
                    OFFSET 3.6982 0 0
                    CHANNELS 6 Xposition Yposition Zposition Zrotation Xrotation Yrotation
                    JOINT LeftHandMiddle3
                    {
                      OFFSET 2.9509 0 0
                      CHANNELS 6 Xposition Yposition Zposition Zrotation Xrotation Yrotation
                      End Site
                      {
                        OFFSET 2.8339 0 0
                      }
                    }
                  }
                }
                JOINT LeftHandRing1
                {
                  OFFSET 9.1045 -0.0439 -1.8651
                  CHANNELS 6 Xposition Yposition Zposition Zrotation Xrotation Yrotation
                  JOINT LeftHandRing2
                  {
                    OFFSET 3.154 0 0
                    CHANNELS 6 Xposition Yposition Zposition Zrotation Xrotation Yrotation
                    JOINT LeftHandRing3
                    {
                      OFFSET 2.9377 0 0
                      CHANNELS 6 Xposition Yposition Zposition Zrotation Xrotation Yrotation
                      End Site
                      {
                        OFFSET 2.6475 0 0
                      }
                    }
                  }
                }
                JOINT LeftHandPinky1
                {
                  OFFSET 8.0778 -0.4887 -3.8061
                  CHANNELS 6 Xposition Yposition Zposition Zrotation Xrotation Yrotation
                  JOINT LeftHandPinky2
                  {
                    OFFSET 3.6 0 0
                    CHANNELS 6 Xposition Yposition Zposition Zrotation Xrotation Yrotation
                    JOINT LeftHandPinky3
                    {
                      OFFSET 2.1142 0 0
                      CHANNELS 6 Xposition Yposition Zposition Zrotation Xrotation Yrotation
                      End Site
                      {
                        OFFSET 1.9757 0 0
                      }
                    }
                  }
                }
              }
            }
          }
        }
        JOINT RightShoulder
        {
          OFFSET -4.57 10.9462 -2.628
          CHANNELS 6 Xposition Yposition Zposition Zrotation Xrotation Yrotation
          JOINT RightArm
          {
            OFFSET -10.5928 -0.5248 -2.2321
            CHANNELS 6 Xposition Yposition Zposition Zrotation Xrotation Yrotation
            JOINT RightForeArm
            {
              OFFSET -27.8415 0 0
              CHANNELS 6 Xposition Yposition Zposition Zrotation Xrotation Yrotation
              JOINT RightHand
              {
                OFFSET -28.3288 0 0.0001
                CHANNELS 6 Xposition Yposition Zposition Zrotation Xrotation Yrotation
                JOINT RightHandPinky1
                {
                  OFFSET -8.0767 -0.4885 -3.806
                  CHANNELS 6 Xposition Yposition Zposition Zrotation Xrotation Yrotation
                  JOINT RightHandPinky2
                  {
                    OFFSET -3.6 0 0.0001
                    CHANNELS 6 Xposition Yposition Zposition Zrotation Xrotation Yrotation
                    JOINT RightHandPinky3
                    {
                      OFFSET -2.1142 0 0
                      CHANNELS 6 Xposition Yposition Zposition Zrotation Xrotation Yrotation
                      End Site
                      {
                        OFFSET -1.9757 0 0
                      }
                    }
                  }
                }
                JOINT RightHandRing1
                {
                  OFFSET -9.1036 -0.0439 -1.8651
                  CHANNELS 6 Xposition Yposition Zposition Zrotation Xrotation Yrotation
                  JOINT RightHandRing2
                  {
                    OFFSET -3.154 0 0
                    CHANNELS 6 Xposition Yposition Zposition Zrotation Xrotation Yrotation
                    JOINT RightHandRing3
                    {
                      OFFSET -2.9377 0 0
                      CHANNELS 6 Xposition Yposition Zposition Zrotation Xrotation Yrotation
                      End Site
                      {
                        OFFSET -2.6475 0 0
                      }
                    }
                  }
                }
                JOINT RightHandMiddle1
                {
                  OFFSET -9.5325 0 0
                  CHANNELS 6 Xposition Yposition Zposition Zrotation Xrotation Yrotation
                  JOINT RightHandMiddle2
                  {
                    OFFSET -3.6982 0 0
                    CHANNELS 6 Xposition Yposition Zposition Zrotation Xrotation Yrotation
                    JOINT RightHandMiddle3
                    {
                      OFFSET -2.9509 0 0
                      CHANNELS 6 Xposition Yposition Zposition Zrotation Xrotation Yrotation
                      End Site
                      {
                        OFFSET -2.8339 0 0.0001
                      }
                    }
                  }
                }
                JOINT RightHandIndex1
                {
                  OFFSET -9.1083 -0.5168 2.2601
                  CHANNELS 6 Xposition Yposition Zposition Zrotation Xrotation Yrotation
                  JOINT RightHandIndex2
                  {
                    OFFSET -3.6764 0 0
                    CHANNELS 6 Xposition Yposition Zposition Zrotation Xrotation Yrotation
                    JOINT RightHandIndex3
                    {
                      OFFSET -2.8831 0 0
                      CHANNELS 6 Xposition Yposition Zposition Zrotation Xrotation Yrotation
                      End Site
                      {
                        OFFSET -2.3927 0 0
                      }
                    }
                  }
                }
                JOINT RightHandThumb1
                {
                  OFFSET -2.4648 -1.5727 2.6826
                  CHANNELS 6 Xposition Yposition Zposition Zrotation Xrotation Yrotation
                  JOINT RightHandThumb2
                  {
                    OFFSET -3.2298 -1.8647 1.8647
                    CHANNELS 6 Xposition Yposition Zposition Zrotation Xrotation Yrotation
                    JOINT RightHandThumb3
                    {
                      OFFSET -2.6526 -1.5314 1.5314
                      CHANNELS 6 Xposition Yposition Zposition Zrotation Xrotation Yrotation
                      End Site
                      {
                        OFFSET -1.9546 -1.1285 1.1285
                      }
                    }
                  }
                }
              }
            }
          }
        }
      }
    }
  }
  JOINT LeftUpLeg
  {
    OFFSET 8.2078 -6.7517 -1.5996
    CHANNELS 6 Xposition Yposition Zposition Zrotation Xrotation Yrotation
    JOINT LeftLeg
    {
      OFFSET 0 -44.3705 0.2846
      CHANNELS 6 Xposition Yposition Zposition Zrotation Xrotation Yrotation
      JOINT LeftFoot
      {
        OFFSET 0 -44.4279 -2.9822
        CHANNELS 6 Xposition Yposition Zposition Zrotation Xrotation Yrotation
        JOINT LeftToeBase
        {
          OFFSET 0 -8.7287 10.7106
          CHANNELS 6 Xposition Yposition Zposition Zrotation Xrotation Yrotation
          End Site
          {
            OFFSET 0 -0.0007 9.2781
          }
        }
      }
    }
  }
  JOINT RightUpLeg
  {
    OFFSET -8.2078 -6.7517 -1.5996
    CHANNELS 6 Xposition Yposition Zposition Zrotation Xrotation Yrotation
    JOINT RightLeg
    {
      OFFSET 0 -44.3705 0.2862
      CHANNELS 6 Xposition Yposition Zposition Zrotation Xrotation Yrotation
      JOINT RightFoot
      {
        OFFSET 0 -44.4277 -2.9838
        CHANNELS 6 Xposition Yposition Zposition Zrotation Xrotation Yrotation
        JOINT RightToeBase
        {
          OFFSET 0 -8.7287 10.7106
          CHANNELS 6 Xposition Yposition Zposition Zrotation Xrotation Yrotation
          End Site
          {
            OFFSET 0 -0.0007 9.2781
          }
        }
      }
    }
  }
}
MOTION
Frames:	4
Frame Time:	0.0333333
0.0180769 102.765 1.44362 0.983389 -2.32248 2.02507 -2.22045e-016 10.1816 0.1315 0.479237 3.33853 0.570656 4.44089e-016 10.0835 -1.0008 0.357239 0.931415 0.148489 8.88178e-016 9.1 -1.3734 0.356863 0.93058 0.157056 -8.88178e-016 16.6717 -2.5162 -0.636635 -0.313685 -0.59903 -4.44089e-016 9.6179 1.685 -5.08876 -4.59065 -4.3659 1.77636e-015 17.8152 2.585 6.33626e-016 -7.95139e-016 -0 3.0676 6.4095 9.2836 6.33626e-016 -7.95139e-016 -0 -3.0676 6.4095 9.2835 6.33626e-016 -7.95139e-016 -0 4.5704 10.946 -2.628 -3.35038 1.96438 -2.58076 10.5924 -0.5246 -2.2321 -76.7333 2.69301 4.49399 27.8415 -0.0001 0 -0.000185418 -5.87347e-006 -18.3991 28.3288 0 -2.66454e-015 -9.50355 -16.3422 -5.06392 2.4661 -1.575 2.6824 11.985 16.8943 4.2802 3.2298 -1.8647 1.8647 3.44216 11.6844 13.5042 2.6526 -1.5315 1.5315 6.01961 10.6301 16.3226 9.1093 -0.5171 2.2601 -7.57246 -0.130276 2.81675 3.6764 1.77636e-015 0 -25.3831 -0.879838 3.19472 2.8831 3.55271e-015 0 -13.5595 -0.179856 1.13934 9.5334 0 -3.55271e-015 -13.6983 -1.27099 8.62026 3.6982 -3.55271e-015 0 -26.5216 -0.98742 3.28877 2.9509 3.55271e-015 -4.44089e-016 -14.5414 -0.205875 1.70552 9.1045 -0.0439 -1.8651 -19.7276 -2.14048 12.0564 3.154 -4.44089e-015 0 -22.8138 -0.357508 2.56247 2.9377 -7.10543e-015 0 -19.5383 -0.097021 1.92307 8.0778 -0.4887 -3.8061 -18.565 -4.34928 13.8557 3.6 1.33227e-015 0 -22.782 -0.568419 2.01614 2.1142 0 -8.88178e-016 -16.5129 -0.383701 2.46651 -4.57 10.9462 -2.628 4.73955 2.26855 6.29353 -10.5928 -0.5248 -2.2321 73.7501 16.6711 -4.89149 -27.8415 3.55271e-015 0 1.33955e-005 1.01184e-006 18.0858 -28.3288 -3.55271e-015 0.0001 8.60497 -22.0945 3.06574 -8.0767 -0.4885 -3.806 19.4126 -2.63494 -9.24215 -3.6 1.77636e-015 0.0001 22.9916 -0.576945 -2.03324 -2.1142 0 0 19.3435 -0.644626 0.30661 -9.1036 -0.0439 -1.8651 14.9129 -1.31295 -6.77955 -3.154 -1.33227e-015 0 23.6226 -0.386233 -2.6371 -2.9377 -7.10543e-015 0 11.248 -0.0372767 0.735967 -9.5325 0 0 10.8531 -0.869768 -3.12293 -3.6982 4.44089e-016 8.88178e-016 23.0801 -0.791642 -2.99869 -2.9509 7.10543e-015 0 14.2289 -0.20723 -1.51919 -9.1083 -0.5168 2.2601 4.37623 0.63301 3.4893 -3.6764 0 -1.77636e-015 16.8626 -0.460131 -2.43464 -2.8831 0 0 6.52877 -0.108439 0.566399 -2.4648 -1.5727 2.6826 -12.429 9.43592 -4.08979 -3.2298 -1.8647 1.8647 -6.18133 8.03809 -9.97874 -2.6526 -1.5314 1.5314 7.69845 8.98138 -21.5822 8.2078 -6.7517 -1.5996 7.16485 -4.16149 10.5345 -3.55271e-015 -44.3705 0.2846 -0.239597 13.2682 -4.70954 -3.55271e-015 -44.4279 -2.9822 -5.69036 -5.77389 -0.053836 0 -8.7287 10.7106 -3.59931e-007 0.177641 4.91493e-006 -8.2078 -6.7517 -1.5996 -2.0037 -6.62789 -12.1552 0 -44.3705 0.2862 0.124504 18.5138 1.82049 8.88178e-016 -44.4277 -2.9838 -1.24691 -9.46273 -0.24842 -1.77636e-015 -8.7287 10.7106 9.44917e-008 -1.54257 5.64741e-007 
0.0474263 102.363 0.526112 0.987797 -0.783162 1.72124 -2.22045e-016 10.1816 0.1315 0.490219 3.83866 0.511182 -4.44089e-016 10.0835 -1.0008 0.345306 1.2374 0.0990355 -4.44089e-016 9.1 -1.3734 0.345067 1.23578 0.109484 1.77636e-015 16.6717 -2.5162 -0.715777 -0.405108 -0.563321 0 9.6179 1.685 -5.22195 -4.8816 -4.18018 -1.77636e-015 17.8152 2.585 9.01131e-016 -2.48481e-017 3.97569e-016 3.0676 6.4095 9.2836 9.01131e-016 -2.48481e-017 3.97569e-016 -3.0676 6.4095 9.2835 9.01131e-016 -2.48481e-017 3.97569e-016 4.5704 10.946 -2.628 -3.61219 1.88567 -2.68391 10.5924 -0.5246 -2.2321 -74.4523 6.19721 4.95619 27.8415 -0.0001 0 -0.000198838 -5.85836e-006 -22.5974 28.3288 7.10543e-015 0 -6.88742 -18.9676 -6.56178 2.4661 -1.575 2.6824 11.8558 16.722 3.89955 3.2298 -1.8647 1.8647 2.98888 11.3039 12.8821 2.6526 -1.5315 1.5315 5.73491 10.4938 15.3665 9.1093 -0.5171 2.2601 -7.64243 -0.133293 2.12263 3.6764 0 0 -25.3831 -0.879841 3.19473 2.8831 5.32907e-015 0 -13.5595 -0.179856 1.13934 9.5334 3.55271e-015 0 -13.6983 -1.27099 8.62026 3.6982 0 0 -26.5216 -0.987419 3.28877 2.9509 0 0 -14.5414 -0.205873 1.70552 9.1045 -0.0439 -1.8651 -19.7072 -2.14675 12.2612 3.154 4.44089e-016 -1.77636e-015 -22.8122 -0.357447 2.56232 2.9377 0 -8.88178e-016 -19.5383 -0.0970207 1.92307 8.0778 -0.4887 -3.8061 -18.5031 -4.33368 14.4972 3.6 1.33227e-015 0 -22.782 -0.568421 2.01614 2.1142 0 4.44089e-016 -16.5129 -0.383699 2.46652 -4.57 10.9462 -2.628 4.90692 2.22022 6.68916 -10.5928 -0.5248 -2.2321 71.939 18.6163 -5.16801 -27.8415 -3.55271e-015 7.10543e-015 3.22639e-007 4.72986e-006 20.6475 -28.3288 -3.55271e-015 0.0001 6.76911 -22.583 4.31511 -8.0767 -0.4885 -3.806 19.438 -2.63932 -9.84168 -3.6 0 0.0001 22.9916 -0.576947 -2.03324 -2.1142 7.10543e-015 1.77636e-015 19.3435 -0.644625 0.306608 -9.1036 -0.0439 -1.8651 14.948 -1.33189 -7.06818 -3.154 -5.55112e-016 0 23.619 -0.386102 -2.63677 -2.9377 0 0 11.2481 -0.0372786 0.735965 -9.5325 -3.55271e-015 0 10.853 -0.869767 -3.12293 -3.6982 1.77636e-015 8.88178e-016 23.0802 -0.791643 -2.99869 -2.9509 0 0 14.2289 -0.207228 -1.5192 -9.1083 -0.5168 2.2601 4.32601 0.605102 3.85501 -3.6764 0 0 16.8417 -0.459239 -2.4327 -2.8831 -8.88178e-016 -1.77636e-015 6.52898 -0.108445 0.566388 -2.4648 -1.5727 2.6826 -12.2769 9.56819 -3.78622 -3.2298 -1.8647 1.8647 -5.73615 7.80298 -9.48751 -2.6526 -1.5314 1.5314 7.87058 8.56482 -20.121 8.2078 -6.7517 -1.5996 7.43689 -8.41775 10.1034 0 -44.3705 0.2846 -0.135525 17.393 -3.84951 0 -44.4279 -2.9822 -6.66207 -6.91348 -0.0965577 -7.10543e-015 -8.7287 10.7106 -1.28714e-006 -0.0729971 4.92575e-006 -8.2078 -6.7517 -1.5996 -2.04486 -10.2075 -10.8807 -8.88178e-016 -44.3705 0.2862 -0.0800768 21.0078 0.658238 8.88178e-016 -44.4277 -2.9838 -1.05713 -9.96829 -0.14684 0 -8.7287 10.7106 5.42514e-008 -1.52237 3.50877e-007 
0.1735 101.686 -0.663458 1.12041 1.49706 1.44897 4.44089e-016 10.1816 0.1315 0.300072 4.43459 0.387864 -4.44089e-016 10.0835 -1.0008 0.324888 1.57888 0.0098622 0 9.1 -1.3734 0.324067 1.57664 0.0211409 0 16.6717 -2.5162 -0.736355 -0.622538 -0.534545 0 9.6179 1.685 -5.28675 -6.47767 -4.0946 0 17.8152 2.585 9.06955e-016 7.95139e-016 -0 3.0676 6.4095 9.2836 9.06955e-016 7.95139e-016 -0 -3.0676 6.4095 9.2835 9.06955e-016 7.95139e-016 -0 4.5704 10.946 -2.628 -3.88045 1.79887 -2.81226 10.5924 -0.5246 -2.2321 -72.0527 10.0213 5.61792 27.8415 -0.0001 -7.10543e-015 -0.000227112 7.30734e-006 -27.0467 28.3288 0 -8.88178e-016 -3.70859 -22.3965 -8.5523 2.4661 -1.575 2.6824 11.5143 16.2769 2.9073 3.2298 -1.8647 1.8647 1.78084 10.3588 11.2491 2.6526 -1.5315 1.5315 4.99519 10.1718 12.8656 9.1093 -0.5171 2.2601 -7.82487 -0.13717 0.313795 3.6764 0 -3.55271e-015 -25.3831 -0.879842 3.19472 2.8831 -1.77636e-015 0 -13.5595 -0.179856 1.13934 9.5334 7.10543e-015 0 -13.6983 -1.27099 8.62026 3.6982 -3.55271e-015 1.77636e-015 -26.5216 -0.987422 3.28877 2.9509 -7.10543e-015 0 -14.5414 -0.205876 1.70552 9.1045 -0.0439 -1.8651 -19.6538 -2.16268 12.7951 3.154 3.55271e-015 -2.66454e-015 -22.808 -0.357304 2.56193 2.9377 0 0 -19.5383 -0.0970215 1.92307 8.0778 -0.4887 -3.8061 -18.3427 -4.28982 16.1688 3.6 -3.55271e-015 0 -22.782 -0.568421 2.01614 2.1142 -3.55271e-015 4.44089e-016 -16.5129 -0.383699 2.46651 -4.57 10.9462 -2.628 5.05143 2.15965 6.98754 -10.5928 -0.5248 -2.2321 69.7162 21.368 -5.9244 -27.8415 3.55271e-015 7.10543e-015 6.73365e-006 5.80598e-006 24.8005 -28.3288 -3.55271e-015 0.0001 3.58955 -23.1211 5.50314 -8.0767 -0.4885 -3.806 19.5047 -2.64786 -11.404 -3.6 -8.88178e-016 0.0001 22.9916 -0.576946 -2.03324 -2.1142 0 0 19.3436 -0.644626 0.306612 -9.1036 -0.0439 -1.8651 15.039 -1.38051 -7.82032 -3.154 0 8.88178e-016 23.6097 -0.385759 -2.63591 -2.9377 7.10543e-015 0 11.2481 -0.0372787 0.735957 -9.5325 0 1.77636e-015 10.8531 -0.869771 -3.12292 -3.6982 0 -1.77636e-015 23.0802 -0.791645 -2.99869 -2.9509 0 2.22045e-016 14.2289 -0.207231 -1.5192 -9.1083 -0.5168 2.2601 4.19658 0.53353 4.80799 -3.6764 7.10543e-015 0 16.7872 -0.456931 -2.42766 -2.8831 1.77636e-015 -3.55271e-015 6.52939 -0.108445 0.566338 -2.4648 -1.5727 2.6826 -11.8886 9.91667 -2.99087 -3.2298 -1.8647 1.8647 -4.56424 7.22639 -8.19587 -2.6526 -1.5314 1.5314 8.36797 7.50098 -16.3142 8.2078 -6.7517 -1.5996 7.6503 -14.1402 9.46871 0 -44.3705 0.2846 -0.124458 22.5456 -3.44793 0 -44.4279 -2.9822 -8.03057 -8.21323 -0.171511 -3.55271e-015 -8.7287 10.7106 -1.36994e-006 -0.391427 -3.88414e-006 -8.2078 -6.7517 -1.5996 -2.32598 -15.3257 -9.61061 0 -44.3705 0.2862 -0.306088 24.6307 -0.521218 0 -44.4277 -2.9838 -0.758527 -10.7785 -0.0662252 8.88178e-016 -8.7287 10.7106 9.59417e-008 -1.47102 -1.13503e-006 
0.451313 100.574 -2.0429 1.67187 4.50766 0.933336 0 10.1816 0.1315 -0.288478 5.06397 0.322069 -4.44089e-016 10.0835 -1.0008 0.245547 1.9123 -0.0302598 0 9.1 -1.3734 0.244563 1.9101 -0.0207182 0 16.6717 -2.5162 -0.701174 -1.00664 -0.522624 -4.44089e-016 9.6179 1.685 -5.2614 -9.09193 -4.15063 0 17.8152 2.585 2.73329e-016 -3.97569e-016 7.95139e-016 3.0676 6.4095 9.2836 2.73329e-016 -3.97569e-016 7.95139e-016 -3.0676 6.4095 9.2835 2.73329e-016 -3.97569e-016 7.95139e-016 4.5704 10.946 -2.628 -4.24483 1.7032 -2.84978 10.5924 -0.5246 -2.2321 -69.8651 13.5521 6.54483 27.8415 -0.0001 1.42109e-014 -0.000196391 1.62205e-006 -31.3213 28.3288 -7.10543e-015 8.88178e-016 0.054178 -25.5092 -10.6469 2.4661 -1.575 2.6824 11.0262 15.6661 1.52318 3.2298 -1.8647 1.8647 0.0358932 9.15656 8.9441 2.6526 -1.5315 1.5315 3.97357 9.80153 9.35776 9.1093 -0.5171 2.2601 -8.07922 -0.132966 -2.20774 3.6764 0 -3.55271e-015 -25.3831 -0.879836 3.19472 2.8831 3.10862e-015 -3.55271e-015 -13.5595 -0.179854 1.13934 9.5334 0 3.55271e-015 -13.6983 -1.27098 8.62026 3.6982 0 0 -26.5216 -0.987419 3.28877 2.9509 -1.77636e-015 1.77636e-015 -14.5414 -0.205876 1.70552 9.1045 -0.0439 -1.8651 -19.5788 -2.18395 13.5393 3.154 1.77636e-015 2.66454e-015 -22.8022 -0.3571 2.56139 2.9377 3.55271e-015 -8.88178e-016 -19.5383 -0.0970202 1.92307 8.0778 -0.4887 -3.8061 -18.1213 -4.22091 18.4987 3.6 0 0 -22.782 -0.56842 2.01614 2.1142 3.55271e-015 0 -16.5129 -0.3837 2.46651 -4.57 10.9462 -2.628 5.38013 2.09369 7.05285 -10.5928 -0.5248 -2.2321 67.0358 24.0027 -7.24308 -27.8415 0 1.42109e-014 -4.5119e-006 -5.57619e-006 30.0621 -28.3288 3.55271e-015 0.0001 -0.495447 -23.2913 7.24683 -8.0767 -0.4885 -3.806 19.5989 -2.65287 -13.5818 -3.6 3.10862e-015 0.0001 22.9916 -0.576944 -2.03324 -2.1142 -3.55271e-015 0 19.3435 -0.644624 0.306611 -9.1036 -0.0439 -1.8651 15.1644 -1.44651 -8.86882 -3.154 -3.55271e-015 8.88178e-016 23.5967 -0.385289 -2.63471 -2.9377 -7.10543e-015 0 11.2483 -0.0372812 0.735943 -9.5325 -7.10543e-015 3.55271e-015 10.8531 -0.869775 -3.12292 -3.6982 3.55271e-015 0 23.0801 -0.791641 -2.99869 -2.9509 3.55271e-015 -4.44089e-016 14.2289 -0.20723 -1.51919 -9.1083 -0.5168 2.2601 4.01948 0.436606 6.13638 -3.6764 0 0 16.7113 -0.45371 -2.42061 -2.8831 8.88178e-016 -1.77636e-015 6.53001 -0.108455 0.56628 -2.4648 -1.5727 2.6826 -11.3669 10.4113 -1.87188 -3.2298 -1.8647 1.8647 -2.905 6.51102 -6.36911 -2.6526 -1.5314 1.5314 9.17571 6.07749 -11.006 8.2078 -6.7517 -1.5996 7.34301 -20.8942 8.49358 0 -44.3705 0.2846 -0.176925 28.1484 -3.3497 0 -44.4279 -2.9822 -9.15261 -9.71161 -0.275852 0 -8.7287 10.7106 1.84527e-006 -0.70752 -3.66425e-006 -8.2078 -6.7517 -1.5996 -3.46917 -22.1449 -9.19814 8.88178e-016 -44.3705 0.2862 -0.389724 29.8096 -0.858411 -8.88178e-016 -44.4277 -2.9838 -0.470359 -12.1071 -0.0811606 -1.77636e-015 -8.7287 10.7106 -7.58661e-007 -1.40661 -4.9608e-007 
